<?xml version="1.0" encoding="UTF-8" standalone="no"?>
<svg width="200px" height="73px" viewBox="0 0 200 73" version="1.1" xmlns="http://www.w3.org/2000/svg" xmlns:xlink="http://www.w3.org/1999/xlink" xmlns:sketch="http://www.bohemiancoding.com/sketch/ns">
    <!-- Generator: sketchtool 3.4 (356) - http://www.bohemiancoding.com/sketch -->
    <title>ic-postman-logo</title>
    <desc>Created with sketchtool.</desc>
    <defs>
        <path id="path-1" d="M0,0.135 L200,0.135 L200,72 L0,72 L0,0.135 Z"></path>
        <path id="path-3" d="M0,0.135 L200,0.135 L200,72 L0,72"></path>
    </defs>
    <g id="Page-1" stroke="none" stroke-width="1" fill="none" fill-rule="evenodd" sketch:type="MSPage">
        <g id="Jobs" sketch:type="MSArtboardGroup" transform="translate(-62.000000, -24.000000)">
            <g id="ic-postman-logo" sketch:type="MSLayerGroup" transform="translate(62.000000, 24.000000)">
                <path d="M83.3682,35.2803 L86.6012,35.2803 C87.6072,35.2803 88.3852,34.9973 88.9362,34.4293 C89.4872,33.8623 89.7632,33.0123 89.7632,31.8803 L89.7632,31.5923 C89.7632,30.4583 89.4872,29.6083 88.9362,29.0413 C88.3852,28.4743 87.6072,28.1903 86.6012,28.1903 L83.3682,28.1903 L83.3682,35.2803 Z M81.3562,43.1593 L81.3562,27.0653 C81.3562,26.8743 81.4322,26.7103 81.5842,26.5743 C81.7352,26.4383 81.9312,26.3703 82.1702,26.3703 L86.6972,26.3703 C88.2302,26.3703 89.4592,26.7863 90.3852,27.6163 C91.3112,28.4463 91.7742,29.7563 91.7742,31.5443 L91.7742,31.7593 C91.7742,33.5483 91.3032,34.8603 90.3612,35.6993 C89.4192,36.5383 88.1652,36.9563 86.6012,36.9563 L83.3682,36.9563 L83.3682,43.1593 C83.3682,43.3843 83.2682,43.5583 83.0692,43.6863 C82.8682,43.8133 82.6332,43.8783 82.3622,43.8783 C82.0902,43.8783 81.8552,43.8133 81.6562,43.6863 C81.4552,43.5583 81.3562,43.3843 81.3562,43.1593 L81.3562,43.1593 Z" id="Fill-1" fill="#F15A24" sketch:type="MSShapeGroup"></path>
                <path d="M100.8027,38.7998 C100.8027,41.0678 101.8477,42.2008 103.9397,42.2008 C104.9467,42.2008 105.7237,41.9178 106.2757,41.3508 C106.8267,40.7838 107.1017,39.9348 107.1017,38.7998 L107.1017,31.5918 C107.1017,30.4578 106.8267,29.6088 106.2757,29.0408 C105.7237,28.4748 104.9467,28.1908 103.9397,28.1908 C101.8477,28.1908 100.8027,29.3248 100.8027,31.5918 L100.8027,38.7998 Z M98.7917,38.7998 L98.7917,31.5918 C98.7917,29.7878 99.2587,28.4658 100.1927,27.6278 C101.1267,26.7898 102.3757,26.3698 103.9397,26.3698 C105.5047,26.3698 106.7587,26.7898 107.7007,27.6278 C108.6417,28.4658 109.1137,29.7878 109.1137,31.5918 L109.1137,38.7998 C109.1137,40.6048 108.6417,41.9258 107.7007,42.7648 C106.7587,43.6028 105.5047,44.0218 103.9397,44.0218 C102.3757,44.0218 101.1267,43.6028 100.1927,42.7648 C99.2587,41.9258 98.7917,40.6048 98.7917,38.7998 L98.7917,38.7998 Z" id="Fill-3" fill="#F15A24" sketch:type="MSShapeGroup"></path>
                <path d="M116.2261,41.4111 C116.2261,41.1551 116.3181,40.9071 116.5011,40.6691 C116.6851,40.4291 116.8881,40.3091 117.1121,40.3091 C117.2561,40.3091 117.4391,40.4091 117.6631,40.6081 C117.8861,40.8081 118.1181,41.0321 118.3571,41.2791 C118.5971,41.5261 118.9721,41.7511 119.4831,41.9501 C119.9941,42.1491 120.5691,42.2491 121.2071,42.2491 C122.2451,42.2491 123.0591,41.9971 123.6501,41.4951 C124.2411,40.9911 124.5371,40.2531 124.5371,39.2801 C124.5371,38.4011 124.2651,37.6861 123.7221,37.1361 C123.1791,36.5851 122.5241,36.1661 121.7581,35.8781 C120.9921,35.5911 120.2211,35.2841 119.4471,34.9561 C118.6721,34.6301 118.0141,34.1261 117.4711,33.4481 C116.9281,32.7681 116.6571,31.8951 116.6571,30.8251 C116.6571,29.9861 116.8161,29.2561 117.1361,28.6351 C117.4551,28.0141 117.8821,27.5461 118.4171,27.2301 C118.9521,26.9161 119.5071,26.6861 120.0821,26.5401 C120.6571,26.3951 121.2711,26.3231 121.9261,26.3231 C122.9151,26.3231 123.8621,26.4671 124.7641,26.7531 C125.6651,27.0401 126.1171,27.4381 126.1171,27.9461 C126.1171,28.1711 126.0371,28.4111 125.8771,28.6681 C125.7181,28.9251 125.5101,29.0541 125.2551,29.0541 C125.1911,29.0541 124.8241,28.9011 124.1531,28.5981 C123.4821,28.2951 122.7401,28.1431 121.9261,28.1431 C120.9521,28.1431 120.1651,28.3431 119.5671,28.7411 C118.9681,29.1411 118.6681,29.7711 118.6681,30.6341 C118.6681,31.3681 118.9401,31.9631 119.4831,32.4181 C120.0261,32.8731 120.6841,33.2361 121.4591,33.5081 C122.2331,33.7791 123.0031,34.0911 123.7701,34.4411 C124.5371,34.7931 125.1911,35.3561 125.7341,36.1301 C126.2771,36.9051 126.5481,37.8901 126.5481,39.0881 C126.5481,40.7331 126.0691,41.9731 125.1111,42.8111 C124.1531,43.6511 122.8841,44.0691 121.3031,44.0691 C119.8821,44.0691 118.6811,43.7711 117.6991,43.1751 C116.7171,42.5791 116.2261,41.9911 116.2261,41.4111" id="Fill-5" fill="#F15A24" sketch:type="MSShapeGroup"></path>
                <path d="M132.5591,27.2578 C132.5591,27.0248 132.6231,26.8178 132.7511,26.6398 C132.8791,26.4598 133.0541,26.3698 133.2781,26.3698 L143.0251,26.3698 C143.2481,26.3698 143.4241,26.4598 143.5521,26.6398 C143.6801,26.8178 143.7441,27.0248 143.7441,27.2578 C143.7441,27.5068 143.6801,27.7238 143.5521,27.9108 C143.4241,28.0978 143.2481,28.1908 143.0251,28.1908 L139.1691,28.1908 L139.1691,43.1568 C139.1691,43.3818 139.0691,43.5578 138.8701,43.6858 C138.6701,43.8138 138.4351,43.8778 138.1631,43.8778 C137.8921,43.8778 137.6571,43.8138 137.4571,43.6858 C137.2571,43.5578 137.1581,43.3818 137.1581,43.1568 L137.1581,28.1908 L133.2781,28.1908 C133.0541,28.1908 132.8791,28.1018 132.7511,27.9228 C132.6231,27.7428 132.5591,27.5228 132.5591,27.2578" id="Fill-7" fill="#F15A24" sketch:type="MSShapeGroup"></path>
                <path d="M150.5688,43.1592 L150.5688,27.3522 C150.5688,26.6982 150.9048,26.3702 151.5748,26.3702 C152.2138,26.3702 152.7488,26.7942 153.1788,27.6392 L156.9398,34.8482 L160.7238,27.6392 C161.1868,26.7942 161.7208,26.3702 162.3288,26.3702 C162.9988,26.3702 163.3338,26.6982 163.3338,27.3522 L163.3338,43.1592 C163.3338,43.3842 163.2338,43.5582 163.0348,43.6862 C162.8348,43.8132 162.5998,43.8782 162.3288,43.8782 C162.0568,43.8782 161.8208,43.8132 161.6218,43.6862 C161.4218,43.5582 161.3218,43.3842 161.3218,43.1592 L161.3218,30.5852 L157.7058,37.3882 C157.5138,37.7552 157.2508,37.9382 156.9158,37.9382 C156.6118,37.9382 156.3648,37.7552 156.1728,37.3882 L152.5808,30.4902 L152.5808,43.1592 C152.5808,43.3842 152.4808,43.5582 152.2818,43.6862 C152.0818,43.8132 151.8458,43.8782 151.5748,43.8782 C151.3028,43.8782 151.0678,43.8132 150.8688,43.6862 C150.6688,43.5582 150.5688,43.3842 150.5688,43.1592" id="Fill-9" fill="#F15A24" sketch:type="MSShapeGroup"></path>
                <path d="M173.7085,38.2021 L179.0525,38.2021 L176.3885,29.1801 L173.7085,38.2021 Z M170.2305,43.0401 C170.2305,43.0081 170.2465,42.9441 170.2785,42.8481 L175.1805,26.9271 C175.3205,26.4601 175.7285,26.2271 176.4015,26.2271 C177.0745,26.2271 177.4805,26.4621 177.6225,26.9311 L182.5415,42.9111 C182.5415,42.9401 182.5445,42.9721 182.5535,43.0011 C182.5615,43.0311 182.5645,43.0541 182.5645,43.0681 C182.5645,43.2781 182.4335,43.4661 182.1695,43.6301 C181.9065,43.7961 181.6235,43.8781 181.3195,43.8781 C180.9365,43.8781 180.6965,43.7271 180.6015,43.4251 L179.5475,39.8781 L173.2105,39.8781 L172.1605,43.4131 C172.0655,43.7231 171.8225,43.8781 171.4315,43.8781 C171.1485,43.8781 170.8785,43.7981 170.6195,43.6381 C170.3605,43.4781 170.2305,43.2791 170.2305,43.0401 L170.2305,43.0401 Z" id="Fill-11" fill="#F15A24" sketch:type="MSShapeGroup"></path>
                <path d="M189.4858,43.1592 L189.4858,27.0652 C189.4858,26.6022 189.8218,26.3702 190.4918,26.3702 C190.8278,26.3702 191.1108,26.4712 191.3418,26.6702 C191.5738,26.8702 191.8008,27.1932 192.0248,27.6392 L197.9878,39.3042 L197.9878,27.0652 C197.9878,26.8422 198.0878,26.6702 198.2878,26.5502 C198.4868,26.4302 198.7218,26.3702 198.9938,26.3702 C199.2648,26.3702 199.5008,26.4302 199.7008,26.5502 C199.8998,26.6702 199.9998,26.8422 199.9998,27.0652 L199.9998,43.1592 C199.9998,43.3842 199.8998,43.5582 199.7008,43.6862 C199.5008,43.8132 199.2648,43.8782 198.9938,43.8782 C198.4828,43.8782 198.0598,43.5752 197.7248,42.9682 L191.4978,30.9212 L191.4978,43.1592 C191.4978,43.3842 191.3978,43.5582 191.1988,43.6862 C190.9988,43.8132 190.7638,43.8782 190.4918,43.8782 C190.2208,43.8782 189.9848,43.8132 189.7858,43.6862 C189.5858,43.5582 189.4858,43.3842 189.4858,43.1592" id="Fill-13" fill="#F15A24" sketch:type="MSShapeGroup"></path>
                <g id="Group-17">
                    <mask id="mask-2" sketch:name="Clip 16" fill="white">
                        <use xlink:href="#path-1"></use>
                    </mask>
                    <g id="Clip-16"></g>
                    <path d="M12.5249,69.8506 L-0.0001,70.2856 L6.4209,63.7566 L12.5249,69.8506 Z" id="Fill-15" fill="#F15A24" sketch:type="MSShapeGroup" mask="url(#mask-2)"></path>
                </g>
                <g id="Group-20">
                    <mask id="mask-4" sketch:name="Clip 19" fill="white">
                        <use xlink:href="#path-3"></use>
                    </mask>
                    <g id="Clip-19"></g>
                    <path d="M69.3403,37.4736 C67.0133,55.6166 50.4173,68.4346 32.2773,66.1056 C14.1333,63.7776 1.3143,47.1826 3.6413,29.0396 C5.9703,10.8976 22.5633,-1.9224 40.7073,0.4086 C58.8503,2.7356 71.6713,19.3306 69.3403,37.4736" id="Fill-18" fill="#F15A24" sketch:type="MSShapeGroup" mask="url(#mask-4)"></path>
                </g>
                <path d="M44.936,23.8408 C47.112,26.1548 44.964,31.6248 44.964,31.6248 C44.964,31.6248 42.841,39.3588 30.686,49.3868 L28.417,47.1588 L43.847,31.3898 L44.146,30.9868 C44.556,30.3188 44.896,23.7958 44.936,23.8408" id="Fill-21" fill="#999999" sketch:type="MSShapeGroup"></path>
                <path d="M44.936,23.8408 C47.112,26.1548 44.964,31.6248 44.964,31.6248 C44.964,31.6248 42.841,39.3588 30.686,49.3868 L28.417,47.1588 L43.847,31.3898 L44.146,30.9868 C44.556,30.3188 44.896,23.7958 44.936,23.8408 L44.936,23.8408 Z" id="Stroke-23" stroke="#FFFFFF" stroke-width="0.959" stroke-linecap="round" stroke-linejoin="round" sketch:type="MSShapeGroup"></path>
                <g id="Group-28" sketch:type="MSShapeGroup">
                    <path d="M25.0845,43.8818 L44.9035,23.7838 C45.9095,24.9798 46.1235,26.2658 45.8315,28.0998 C45.6355,29.3688 43.4415,31.9068 43.4415,31.9068 L28.4175,47.1588" id="Fill-25" fill="#666666"></path>
                    <path d="M25.0845,43.8818 L44.9035,23.7838 C45.9095,24.9798 46.1235,26.2658 45.8315,28.0998 C45.6355,29.3688 43.4415,31.9068 43.4415,31.9068 L28.4175,47.1588" id="Stroke-27" stroke="#FFFFFF" stroke-width="0.6" stroke-linecap="round" stroke-linejoin="round"></path>
                </g>
                <path d="M44.936,23.8564 L25.084,43.8814 L25.124,43.8424 L25.117,43.8444 L20.191,38.9934 C30.463,26.2174 37.104,23.8354 37.104,23.8354 C37.104,23.8354 41.427,22.1474 44.511,23.4584 C44.748,23.5854 44.851,23.6584 44.936,23.8564" id="Fill-29" fill="#FF931E" sketch:type="MSShapeGroup"></path>
                <path d="M44.936,23.8564 L25.084,43.8814 L25.124,43.8424 L25.117,43.8444 L20.191,38.9934 C30.463,26.2174 37.104,23.8354 37.104,23.8354 C37.104,23.8354 41.427,22.1474 44.511,23.4584 C44.748,23.5854 44.851,23.6584 44.936,23.8564 L44.936,23.8564 Z" id="Stroke-31" stroke="#FFFFFF" stroke-width="0.959" stroke-linecap="round" stroke-linejoin="round" sketch:type="MSShapeGroup"></path>
                <g id="Group-36" sketch:type="MSShapeGroup">
                    <path d="M30.6865,49.3867 C25.9505,53.2867 19.8895,59.4137 11.6505,63.6877 L13.4835,71.5207 L5.7165,63.8707 L25.0845,43.8817" id="Fill-33" fill="#999999"></path>
                    <path d="M30.6865,49.3867 C25.9505,53.2867 19.8895,59.4137 11.6505,63.6877 L13.4835,71.5207 L5.7165,63.8707 L25.0845,43.8817" id="Stroke-35" stroke="#FFFFFF" stroke-width="0.959" stroke-linecap="round" stroke-linejoin="round"></path>
                </g>
                <path d="M20.3257,39.0586 L25.1367,43.8506 L14.0207,46.2586 L20.2187,38.9716 L20.3257,39.0586 Z" id="Fill-37" fill="#F15A24" sketch:type="MSShapeGroup"></path>
                <path d="M20.3257,39.0586 L25.1367,43.8506 L14.0207,46.2586 L20.2187,38.9716 L20.3257,39.0586 L20.3257,39.0586 Z" id="Stroke-39" stroke="#FFFFFF" stroke-width="0.959" stroke-linecap="round" stroke-linejoin="round" sketch:type="MSShapeGroup"></path>
                <path d="M43.0405,18.0439 C42.5695,22.3039 45.6365,26.1399 49.8965,26.6139 C54.1525,27.0869 57.9905,24.0179 58.4655,19.7589 C58.9395,15.5009 55.8675,11.6609 51.6095,11.1889 C47.3485,10.7179 43.5135,13.7829 43.0405,18.0439" id="Fill-41" fill="#999999" sketch:type="MSShapeGroup"></path>
                <path d="M43.0405,18.0439 C42.5695,22.3039 45.6365,26.1399 49.8965,26.6139 C54.1525,27.0869 57.9905,24.0179 58.4655,19.7589 C58.9395,15.5009 55.8675,11.6609 51.6095,11.1889 C47.3485,10.7179 43.5135,13.7829 43.0405,18.0439 L43.0405,18.0439 Z" id="Stroke-43" stroke="#FFFFFF" stroke-width="0.959" stroke-linecap="round" stroke-linejoin="round" sketch:type="MSShapeGroup"></path>
                <path d="M57.3516,23.1895 C58.7836,21.0985 58.7096,17.9685 58.4206,17.0425 C58.0686,15.9075 57.2806,14.0615 55.9036,13.1015 L48.6286,19.8035 C48.6286,19.8035 54.2206,25.8115 54.3656,25.8315 C54.4266,25.8385 56.0456,25.0965 57.3516,23.1895" id="Fill-45" fill="#666666" sketch:type="MSShapeGroup"></path>
                <path d="M57.3516,23.1895 C58.7836,21.0985 58.7096,17.9685 58.4206,17.0425 C58.0686,15.9075 57.2806,14.0615 55.9036,13.1015 L48.6286,19.8035 C48.6286,19.8035 54.2206,25.8115 54.3656,25.8315 C54.4266,25.8385 56.0456,25.0965 57.3516,23.1895 L57.3516,23.1895 Z" id="Stroke-47" stroke="#FFFFFF" stroke-width="0.959" stroke-linecap="round" stroke-linejoin="round" sketch:type="MSShapeGroup"></path>
                <path d="M55.8833,17.9395 C55.8833,17.9395 56.5823,19.6575 55.6953,20.9945" id="Stroke-49" stroke="#FFFFFF" stroke-width="0.959" stroke-linecap="round" stroke-linejoin="round" sketch:type="MSShapeGroup"></path>
                <g id="Group-54" sketch:type="MSShapeGroup">
                    <path d="M28.5894,47.1631 L20.5584,48.5931 L25.4054,43.5561" id="Fill-51" fill="#666666"></path>
                    <path d="M28.5894,47.1631 L20.5584,48.5931 L25.4054,43.5561" id="Stroke-53" stroke="#FFFFFF" stroke-width="0.959" stroke-linecap="round" stroke-linejoin="round"></path>
                </g>
                <path d="M20.5117,39.0937 L30.7197,48.7007" id="Stroke-55" stroke="#FFFFFF" stroke-width="0.959" stroke-linecap="round" stroke-linejoin="round" sketch:type="MSShapeGroup"></path>
            </g>
        </g>
    </g>
</svg>